<svg viewBox="0 0 18 18" fill="none" xmlns="http://www.w3.org/2000/svg">
    <circle cx="9" cy="9" r="9" fill="#2DC78F"/>
    <path d="M12.9467 8.74659C12.915 8.66475 12.8674 8.58999 12.8067 8.52659L9.47336 5.19325C9.4112 5.13109 9.33741 5.08179 9.2562 5.04815C9.17498 5.01451 9.08794 4.99719 9.00003 4.99719C8.8225 4.99719 8.65223 5.06772 8.5267 5.19325C8.46454 5.25541 8.41523 5.32921 8.38159 5.41042C8.34795 5.49164 8.33064 5.57868 8.33064 5.66659C8.33064 5.84412 8.40116 6.01438 8.5267 6.13992L10.7267 8.33325H5.6667C5.48989 8.33325 5.32032 8.40349 5.19529 8.52852C5.07027 8.65354 5.00003 8.82311 5.00003 8.99992C5.00003 9.17673 5.07027 9.3463 5.19529 9.47132C5.32032 9.59635 5.48989 9.66659 5.6667 9.66659H10.7267L8.5267 11.8599C8.46421 11.9219 8.41462 11.9956 8.38077 12.0769C8.34692 12.1581 8.3295 12.2452 8.3295 12.3333C8.3295 12.4213 8.34692 12.5084 8.38077 12.5896C8.41462 12.6709 8.46421 12.7446 8.5267 12.8066C8.58867 12.8691 8.66241 12.9187 8.74365 12.9525C8.82489 12.9864 8.91202 13.0038 9.00003 13.0038C9.08804 13.0038 9.17518 12.9864 9.25642 12.9525C9.33765 12.9187 9.41139 12.8691 9.47336 12.8066L12.8067 9.47325C12.8674 9.40985 12.915 9.33509 12.9467 9.25325C13.0134 9.09095 13.0134 8.90889 12.9467 8.74659Z" fill="white"/>
</svg>
